<svg width="25" height="25" viewBox="0 0 25 25" fill="none" xmlns="http://www.w3.org/2000/svg">
<path d="M21.7719 11.0063C21.6867 10.8297 21.5534 10.6807 21.3874 10.5764C21.2214 10.4722 21.0294 10.4168 20.8333 10.4167H16.6667V3.12501C16.6667 2.84874 16.5569 2.58379 16.3616 2.38844C16.1662 2.19309 15.9013 2.08334 15.625 2.08334H9.375C9.09873 2.08334 8.83378 2.19309 8.63843 2.38844C8.44308 2.58379 8.33333 2.84874 8.33333 3.12501V10.4167H4.16667C3.97056 10.417 3.77852 10.4726 3.61259 10.5772C3.44667 10.6817 3.31359 10.8309 3.22864 11.0077C3.14369 11.1845 3.11031 11.3816 3.13233 11.5765C3.15435 11.7713 3.23088 11.956 3.35313 12.1094L11.6865 22.5261C11.784 22.6481 11.9078 22.7466 12.0487 22.8143C12.1895 22.882 12.3437 22.9172 12.5 22.9172C12.6563 22.9172 12.8105 22.882 12.9513 22.8143C13.0922 22.7466 13.216 22.6481 13.3135 22.5261L21.6469 12.1094C21.8969 11.7958 21.9448 11.3677 21.7719 11.0063ZM12.5 20.2073L6.33438 12.5H10.4167V4.16668H14.5833V12.5H18.6656L12.5 20.2073Z" fill="white"/>
</svg>
