<svg width="21" height="18" viewBox="0 0 21 18" fill="none" xmlns="http://www.w3.org/2000/svg">
<path d="M19.6484 3.68874C19.336 2.9669 18.8855 2.31277 18.3222 1.76298C17.7585 1.21154 17.0938 0.773325 16.3644 0.472155C15.608 0.15862 14.7967 -0.0018648 13.9777 1.63478e-05C12.8286 1.63478e-05 11.7075 0.314 10.7332 0.90708C10.5001 1.04895 10.2787 1.20478 10.0689 1.37457C9.85918 1.20478 9.63775 1.04895 9.40468 0.90708C8.43041 0.314 7.30931 1.63478e-05 6.16024 1.63478e-05C5.33281 1.63478e-05 4.53103 0.158171 3.77352 0.472155C3.04166 0.774509 2.38205 1.20943 1.81567 1.76298C1.25162 2.31215 0.801036 2.96643 0.489463 3.68874C0.165485 4.43998 0 5.23773 0 6.05874C0 6.83323 0.158493 7.64028 0.473147 8.46129C0.736525 9.14741 1.11411 9.8591 1.59658 10.5778C2.36108 11.7151 3.41225 12.9013 4.71749 14.1037C6.88045 16.0969 9.02243 17.4738 9.11333 17.5296L9.66572 17.8831C9.91046 18.039 10.2251 18.039 10.4698 17.8831L11.0222 17.5296C11.1131 17.4715 13.2528 16.0969 15.4181 14.1037C16.7233 12.9013 17.7745 11.7151 18.539 10.5778C19.0215 9.8591 19.4014 9.14741 19.6624 8.46129C19.9771 7.64028 20.1356 6.83323 20.1356 6.05874C20.1379 5.23773 19.9724 4.43998 19.6484 3.68874ZM10.0689 16.0434C10.0689 16.0434 1.77139 10.7383 1.77139 6.05874C1.77139 3.68874 3.73623 1.76763 6.16024 1.76763C7.86403 1.76763 9.34175 2.71656 10.0689 4.10274C10.7962 2.71656 12.2739 1.76763 13.9777 1.76763C16.4017 1.76763 18.3665 3.68874 18.3665 6.05874C18.3665 10.7383 10.0689 16.0434 10.0689 16.0434Z" fill="#D10000"/>
</svg>
