<svg width="25" height="25" viewBox="0 0 25 25" fill="none" xmlns="http://www.w3.org/2000/svg">
<path d="M3.32743 24.2188H0.78124V11.4909C0.778905 10.6214 0.97998 9.76344 1.3684 8.98555C1.89576 7.82179 2.74703 6.83448 3.82048 6.14158C4.89394 5.44868 6.1442 5.07949 7.42186 5.07812H14.0897V0.78125H16.1581L24.1517 8.7749L16.1297 16.7969H14.0897V12.5H9.75316C8.84608 12.5022 7.96446 12.8001 7.24197 13.3486C6.51949 13.8971 5.99555 14.6662 5.7496 15.5393L3.32743 24.2188ZM7.42186 6.64062C6.44252 6.64167 5.48429 6.9253 4.66215 7.45746C3.84002 7.98962 3.1889 8.74772 2.78695 9.64077L2.77269 9.67075C2.48884 10.2354 2.34189 10.8589 2.34374 11.4909V21.9308L4.24462 15.1193C4.583 13.918 5.30388 12.8597 6.29796 12.1051C7.29204 11.3504 8.50509 10.9405 9.75316 10.9375H15.6522V15.0647L21.942 8.7749L15.6522 2.48506V6.64062H7.42186Z" fill="white"/>
</svg>
