<svg width="26" height="26" viewBox="0 0 26 26" fill="none" xmlns="http://www.w3.org/2000/svg">
<path d="M19.5 15.1667H6.49997C5.73379 15.1667 4.99899 15.471 4.45722 16.0128C3.91545 16.5546 3.61108 17.2894 3.61108 18.0555V26H22.3889V18.0555C22.3889 17.2894 22.0845 16.5546 21.5427 16.0128C21.001 15.471 20.2662 15.1667 19.5 15.1667Z" fill="#4289C1"/>
<path d="M7.22217 19.5H7.94439V26H7.22217V19.5Z" fill="#2A6797"/>
<path d="M3.39596 19.1353L3.19157 19.0927H2.82251C2.82251 19.0508 2.83912 19.0118 2.84779 18.9706C2.72143 18.8939 2.62184 18.78 2.56264 18.6445C2.50343 18.509 2.4875 18.3586 2.51701 18.2137C2.5979 17.8223 2.9814 17.5709 3.37357 17.6511L4.88373 17.9638H6.09418C6.71746 17.9638 7.22229 18.4694 7.22229 19.0934V20.2222H4.51612C4.51612 20.2222 3.44651 19.739 3.39596 19.1353Z" fill="#B78B60"/>
<path d="M0 18.5286C0 18.2166 0.252778 17.9638 0.564056 17.9638L3.95128 18.5286H6.65744C6.96944 18.5286 7.2215 18.7821 7.2215 19.0927V20.2222H3.61111L0.564056 19.0934C0.564056 19.0934 0 18.8406 0 18.5286Z" fill="#D5AB88"/>
<path d="M2.88892 26H7.22225V20.2222H3.61114L2.88892 26Z" fill="#4289C1"/>
<path d="M18.0555 19.5H18.7778V26H18.0555V19.5Z" fill="#2A6797"/>
<path d="M22.6042 19.1353L22.8086 19.0927H23.1776C23.1776 19.0508 23.161 19.0118 23.1523 18.9706C23.2787 18.8939 23.3783 18.78 23.4375 18.6445C23.4967 18.509 23.5126 18.3586 23.4831 18.2137C23.4442 18.0256 23.3322 17.8607 23.1717 17.7552C23.0112 17.6497 22.8154 17.6123 22.6273 17.6511L21.1171 17.9638H19.9067C19.2834 17.9638 18.7786 18.4694 18.7786 19.0934V20.2222H21.4847C21.484 20.2222 22.5536 19.739 22.6042 19.1353Z" fill="#B78B60"/>
<path d="M26.0001 18.5286C26.0001 18.379 25.9407 18.2354 25.8349 18.1295C25.7291 18.0236 25.5857 17.964 25.436 17.9638L22.0481 18.5286H19.3419C19.1923 18.5286 19.0488 18.588 18.943 18.6938C18.8373 18.7996 18.7778 18.9431 18.7778 19.0927V20.2222H22.3889L25.436 19.0934C25.436 19.0934 26.0001 18.8406 26.0001 18.5286Z" fill="#D5AB88"/>
<path d="M23.1112 26H18.7778V20.2222H22.3889L23.1112 26Z" fill="#4289C1"/>
<path d="M6.5 5.05554V12.2778C6.5 15.8679 9.40983 18.7778 13 18.7778C16.5902 18.7778 19.5 15.8679 19.5 12.2778V5.05554H6.5Z" fill="#D5AB88"/>
<path d="M7.83389 9.90527C7.83389 11.0464 7.25611 11.9715 6.54255 11.9715C5.829 11.9715 5.25122 11.0464 5.25122 9.90527C5.25122 8.76416 5.82972 7.83899 6.54255 7.83899C7.25539 7.83899 7.83389 8.76416 7.83389 9.90527ZM20.7487 9.90527C20.7487 11.0464 20.1709 11.9715 19.4573 11.9715C18.7438 11.9715 18.166 11.0464 18.166 9.90527C18.166 8.76416 18.7438 7.83899 19.4573 7.83899C20.1709 7.83899 20.7487 8.76416 20.7487 9.90527Z" fill="#D5AB88"/>
<path d="M13 0.594391C7.9307 0.594391 5.67737 3.97728 5.67737 6.79684C5.67737 9.61567 6.64731 10.3978 6.80403 9.61567C7.36737 6.79684 9.05737 5.93161 9.05737 5.93161C12.4374 8.75117 11.874 6.49567 11.874 6.49567C15.2533 9.87856 13.564 6.49567 13.564 6.49567C14.6907 7.62378 18.07 7.62378 18.07 7.62378C18.07 7.62378 18.6333 8.489 19.1959 9.61639C19.7593 10.7445 20.3226 9.61639 20.3226 6.79756C20.3226 3.97728 17.5059 0.594391 13 0.594391Z" fill="#963B22"/>
<path d="M13.7222 14.0833H12.2777C12.182 14.0833 12.0901 14.0453 12.0224 13.9776C11.9547 13.9098 11.9166 13.818 11.9166 13.7222C11.9166 13.6265 11.9547 13.5346 12.0224 13.4669C12.0901 13.3992 12.182 13.3611 12.2777 13.3611H13.7222C13.818 13.3611 13.9098 13.3992 13.9775 13.4669C14.0452 13.5346 14.0833 13.6265 14.0833 13.7222C14.0833 13.818 14.0452 13.9098 13.9775 13.9776C13.9098 14.0453 13.818 14.0833 13.7222 14.0833ZM14.8055 16.6111H14.4444C14.3486 16.6111 14.2568 16.5731 14.1891 16.5053C14.1213 16.4376 14.0833 16.3458 14.0833 16.25C14.0833 16.1542 14.1213 16.0624 14.1891 15.9947C14.2568 15.9269 14.3486 15.8889 14.4444 15.8889H14.8055C14.9013 15.8889 14.9931 15.9269 15.0609 15.9947C15.1286 16.0624 15.1666 16.1542 15.1666 16.25C15.1666 16.3458 15.1286 16.4376 15.0609 16.5053C14.9931 16.5731 14.9013 16.6111 14.8055 16.6111Z" fill="#BF6952"/>
<path d="M10.1111 11.5556C9.91959 11.5556 9.73589 11.4795 9.60045 11.344C9.46501 11.2086 9.38892 11.0249 9.38892 10.8333V10.1111C9.38892 9.91956 9.46501 9.73586 9.60045 9.60042C9.73589 9.46498 9.91959 9.38889 10.1111 9.38889C10.3027 9.38889 10.4864 9.46498 10.6218 9.60042C10.7573 9.73586 10.8334 9.91956 10.8334 10.1111V10.8333C10.8334 11.0249 10.7573 11.2086 10.6218 11.344C10.4864 11.4795 10.3027 11.5556 10.1111 11.5556ZM15.8889 11.5556C15.6974 11.5556 15.5137 11.4795 15.3782 11.344C15.2428 11.2086 15.1667 11.0249 15.1667 10.8333V10.1111C15.1667 9.91956 15.2428 9.73586 15.3782 9.60042C15.5137 9.46498 15.6974 9.38889 15.8889 9.38889C16.0805 9.38889 16.2642 9.46498 16.3996 9.60042C16.535 9.73586 16.6111 9.91956 16.6111 10.1111V10.8333C16.6111 11.0249 16.535 11.2086 16.3996 11.344C16.2642 11.4795 16.0805 11.5556 15.8889 11.5556Z" fill="#662113"/>
</svg>
