<?xml version="1.0" standalone="no"?>
<!DOCTYPE svg PUBLIC "-//W3C//DTD SVG 20010904//EN"
 "http://www.w3.org/TR/2001/REC-SVG-20010904/DTD/svg10.dtd">
<svg version="1.0" xmlns="http://www.w3.org/2000/svg"
 width="511.000000pt" height="569.000000pt" viewBox="0 0 511.000000 569.000000"
 preserveAspectRatio="xMidYMid meet">
<metadata>
Created by potrace 1.16, written by Peter Selinger 2001-2019
</metadata>
<g transform="translate(0.000000,569.000000) scale(0.100000,-0.100000)"
fill="#000000" stroke="none">
<path d="M2456 5642 c-3 -2 -26 -6 -53 -8 -64 -4 -86 -8 -102 -19 -10 -6 -12
-4 -6 4 5 8 -1 7 -16 -2 -13 -9 -36 -15 -51 -13 -15 2 -25 -1 -22 -5 3 -5 -3
-9 -13 -9 -21 -1 -151 -68 -143 -74 3 -2 2 -8 -2 -12 -5 -4 -8 1 -9 12 0 11
-3 13 -6 6 -2 -6 -10 -9 -16 -5 -7 4 -6 -1 2 -10 12 -16 8 -22 -13 -18 -4 1
-14 -6 -22 -16 -7 -10 -14 -13 -14 -8 0 6 -4 4 -9 -4 -8 -12 -12 -12 -24 -2
-13 10 -15 8 -13 -13 2 -18 -1 -23 -12 -18 -23 8 -45 -27 -29 -47 10 -14 10
-14 -4 -3 -13 10 -21 8 -42 -9 -22 -16 -24 -23 -14 -34 6 -7 17 -10 22 -7 6 3
4 -2 -4 -11 -15 -19 -26 -23 -15 -5 5 7 2 9 -8 5 -9 -3 -21 0 -27 6 -8 8 -11
8 -11 -1 0 -7 4 -12 9 -12 5 0 12 -7 15 -16 4 -12 2 -15 -9 -10 -18 7 -20 -5
-3 -22 7 -7 8 -12 2 -12 -18 0 -34 -46 -22 -58 8 -8 7 -16 -3 -28 -12 -16 -12
-17 1 -9 12 6 13 5 3 -6 -7 -7 -13 -17 -13 -22 0 -4 6 -5 13 -2 6 4 5 1 -3 -7
-16 -14 -18 -28 -25 -168 -3 -47 -6 -96 -8 -110 -2 -14 0 -39 4 -56 3 -17 2
-39 -3 -48 -5 -10 -5 -16 0 -16 6 0 9 -6 9 -12 -2 -25 15 -108 22 -108 4 0 7
-18 7 -39 -1 -22 2 -37 7 -34 4 2 7 -9 7 -26 0 -23 4 -29 15 -25 11 5 13 2 9
-10 -3 -9 -2 -16 4 -16 5 0 12 -13 16 -30 3 -19 12 -30 23 -31 10 0 13 -3 6
-6 -9 -3 -8 -11 4 -29 8 -14 18 -22 21 -19 3 3 10 -5 17 -18 6 -12 16 -21 22
-20 6 1 10 -5 9 -15 -1 -11 6 -16 17 -15 12 0 16 -4 13 -13 -3 -8 0 -14 7 -14
7 0 18 -9 25 -21 8 -12 19 -18 27 -15 8 3 14 0 12 -7 -1 -7 4 -11 11 -10 6 2
12 -2 12 -8 0 -5 4 -8 9 -5 5 3 12 -1 15 -9 3 -8 9 -14 13 -13 13 3 53 -13 53
-21 0 -4 24 -13 53 -20 28 -8 58 -18 64 -23 7 -6 19 -8 27 -5 8 3 17 3 21 -1
7 -7 13 -9 46 -11 12 -1 17 -5 13 -13 -5 -7 -3 -8 7 -2 18 11 80 14 73 3 -6
-10 143 -5 169 6 11 5 17 3 17 -6 0 -12 2 -12 9 0 5 8 16 11 25 8 8 -3 18 -2
20 2 3 5 19 7 36 5 17 -2 29 0 25 5 -3 5 4 7 14 4 26 -7 182 57 174 71 -3 6
-3 8 2 4 11 -10 60 17 81 44 10 15 14 17 11 6 -4 -12 -2 -15 8 -12 8 3 11 12
8 20 -3 8 -1 14 5 12 15 -5 72 41 72 57 0 8 7 15 16 15 8 0 12 5 9 10 -3 6 1
13 9 16 9 3 13 10 10 15 -3 5 0 9 6 9 7 0 9 7 6 16 -5 13 -4 14 7 5 11 -8 20
-6 40 13 16 15 28 20 30 13 3 -8 11 -6 25 6 11 11 26 16 31 12 12 -7 44 19 35
28 -3 3 3 3 14 1 12 -4 22 0 25 10 4 9 2 16 -3 16 -6 0 -10 5 -10 11 0 6 7 8
16 5 12 -5 15 -2 10 10 -4 11 -2 15 7 11 10 -4 13 9 12 52 0 35 4 55 11 54 6
-1 11 4 11 12 0 8 -4 12 -8 10 -4 -3 -10 2 -13 11 -3 8 -2 12 3 9 9 -5 9 40 0
49 -8 9 3 96 12 90 5 -3 9 -3 9 1 0 3 -11 10 -25 15 -14 5 -25 15 -25 21 0 8
5 7 18 -2 14 -11 15 -11 5 1 -7 8 -13 22 -13 31 0 9 -14 32 -31 50 -25 27 -32
30 -40 18 -8 -12 -9 -12 -7 1 1 8 -3 24 -9 36 -7 11 -10 32 -9 47 2 15 -1 27
-6 27 -5 0 -8 8 -6 18 1 9 -1 23 -5 30 -5 6 -5 12 -1 12 3 0 1 7 -6 15 -9 11
-9 15 -1 15 7 0 9 5 6 10 -4 6 -11 7 -17 4 -7 -5 -8 -2 -3 6 9 14 -14 90 -27
90 -10 0 -34 51 -37 82 0 6 -4 9 -7 5 -9 -8 -35 20 -39 41 -1 9 -7 16 -13 15
-12 -3 -11 15 2 36 6 9 5 12 -1 8 -14 -9 -52 11 -90 48 -45 43 -61 56 -70 53
-9 -3 -64 31 -74 45 -3 4 -16 9 -27 10 -12 1 -22 5 -22 9 0 4 -13 8 -29 8 -16
0 -34 7 -41 15 -10 12 -16 13 -26 4 -8 -6 -14 -7 -14 -2 0 5 -15 9 -32 9 -18
0 -46 4 -63 9 -33 8 -202 15 -209 7z m166 -262 c108 -17 207 -69 289 -151 104
-103 159 -236 159 -382 0 -197 -121 -392 -297 -480 -69 -34 -171 -63 -195 -55
-6 2 41 49 103 103 150 131 199 181 199 203 0 18 -34 49 -107 100 l-31 22 -30
-30 c-32 -31 -62 -37 -106 -20 -32 12 -66 65 -66 103 0 22 4 27 26 27 14 0 35
-5 47 -11 18 -9 20 -9 10 2 -7 7 -13 21 -13 31 0 14 -9 18 -37 20 -21 0 -49 2
-63 3 -34 1 -114 43 -144 74 -13 14 -26 37 -28 51 -3 23 -6 25 -53 21 -27 -1
-52 -5 -54 -7 -3 -2 3 -20 12 -39 17 -35 90 -90 133 -101 17 -4 23 -16 28 -54
8 -57 30 -80 150 -155 42 -26 76 -51 74 -55 -2 -4 -60 -67 -130 -140 l-128
-133 -77 38 c-148 73 -263 222 -294 383 -34 180 36 386 172 505 52 45 154 105
164 96 3 -3 -6 -27 -20 -52 -26 -45 -26 -46 -6 -56 11 -6 31 -11 44 -11 20 0
26 6 31 33 7 36 48 60 86 50 11 -3 20 0 20 6 0 6 -9 11 -20 11 -23 0 -25 12
-8 40 15 23 65 26 160 10z"/>
<path d="M1007 4858 c-15 -8 -16 -12 -5 -26 9 -11 10 -14 1 -8 -20 11 -2 -27
27 -61 14 -16 32 -37 40 -48 14 -19 14 -19 -3 -6 -9 8 -20 11 -24 8 -3 -4 -12
-2 -19 4 -8 7 -14 7 -19 -1 -3 -5 -18 -7 -32 -4 -20 5 -24 4 -18 -6 6 -10 4
-11 -6 -4 -8 5 -22 7 -33 5 -12 -2 -16 1 -11 9 6 9 2 9 -14 0 -12 -6 -66 -13
-119 -15 -53 -2 -104 -6 -112 -8 -8 -2 -28 -7 -45 -11 -16 -4 -37 -10 -45 -13
-8 -4 -17 -7 -20 -7 -3 -1 -11 -5 -18 -10 -7 -4 -16 -6 -19 -2 -3 3 -12 -2
-20 -10 -9 -8 -22 -13 -29 -10 -8 3 -14 2 -14 -3 0 -5 -11 -12 -25 -15 -13 -3
-34 -16 -45 -28 -11 -12 -20 -18 -20 -13 0 4 -8 -2 -19 -13 -10 -12 -23 -22
-30 -22 -6 0 -11 -7 -11 -16 0 -8 -4 -13 -9 -9 -5 3 -12 -4 -16 -15 -3 -11
-12 -20 -18 -20 -13 0 -52 -40 -39 -40 4 0 1 -4 -6 -9 -7 -4 -15 -17 -16 -27
-2 -10 -9 -18 -16 -16 -6 1 -9 -2 -5 -8 3 -5 0 -13 -8 -16 -16 -6 -27 -32 -33
-73 -2 -13 -8 -28 -15 -31 -6 -4 -8 -13 -5 -19 4 -6 2 -11 -3 -11 -6 0 -11 -4
-11 -9 0 -5 -5 -22 -12 -38 -6 -15 -11 -31 -10 -35 1 -5 -3 -8 -9 -8 -7 0 -8
-5 -2 -12 5 -7 7 -29 5 -48 -8 -72 -6 -346 2 -365 5 -11 8 -26 7 -32 -1 -7 3
-23 10 -35 6 -12 14 -38 16 -57 3 -20 11 -43 19 -52 11 -12 11 -18 2 -27 -7
-7 -8 -12 -2 -12 5 0 10 -24 10 -52 3 -113 26 -214 46 -202 7 5 9 1 5 -9 -5
-12 -1 -17 13 -17 12 0 17 -5 14 -14 -4 -9 2 -13 20 -11 14 2 29 -2 33 -7 4
-7 1 -8 -8 -3 -8 5 -11 4 -6 -1 5 -5 16 -9 25 -10 57 -2 121 -18 115 -28 -4
-6 1 -5 10 3 14 11 17 11 17 0 0 -9 3 -10 8 -3 8 11 117 17 142 7 19 -7 43
-11 110 -17 30 -3 55 -6 55 -7 0 0 24 -3 54 -4 29 -2 65 -6 78 -10 14 -3 32 0
41 7 13 11 14 11 7 -2 -7 -12 -6 -13 6 -4 8 6 36 12 63 13 27 2 58 5 70 8 11
2 27 5 34 5 6 1 12 5 12 10 0 5 5 6 11 2 10 -6 26 -1 89 30 14 7 35 12 47 11
12 -1 20 2 17 7 -3 4 0 8 7 8 6 0 20 9 30 21 9 11 20 20 23 20 20 -3 26 0 21
9 -3 6 -1 11 4 11 6 1 15 2 19 3 14 2 41 33 35 40 -4 3 1 6 10 6 10 0 17 5 17
10 0 6 6 10 14 10 8 0 18 9 21 20 3 11 11 20 16 20 6 0 8 4 4 10 -3 5 6 17 20
26 14 9 25 23 25 31 0 8 5 11 12 7 6 -4 8 -3 5 3 -3 5 1 22 9 37 7 16 14 34
14 41 0 8 8 21 18 31 9 10 16 19 15 21 -2 2 -3 9 -3 16 0 8 4 7 10 -3 5 -8 10
-10 10 -5 0 6 -5 16 -11 22 -9 9 -7 16 6 29 11 12 15 26 11 45 -3 16 -1 31 4
34 5 3 7 19 5 35 -2 17 0 30 3 30 4 0 7 45 6 100 -2 74 1 98 9 93 9 -5 9 -3 1
8 -6 8 -10 22 -9 32 2 9 -1 17 -6 17 -5 0 -7 18 -4 40 3 22 1 40 -3 40 -5 0
-9 6 -10 13 -3 36 -10 64 -20 83 -6 12 -8 24 -5 28 3 3 1 6 -5 6 -7 0 -12 5
-12 11 0 5 6 7 13 3 6 -4 1 5 -12 19 -14 15 -20 27 -15 27 5 0 2 5 -6 10 -11
7 -12 10 -2 10 11 0 11 3 0 15 -31 34 -36 43 -31 49 4 3 1 6 -6 6 -6 0 -16 12
-21 26 -6 14 -14 23 -19 19 -5 -3 -13 0 -17 6 -4 8 -3 9 4 5 22 -13 12 3 -21
36 -18 18 -39 41 -46 51 -12 15 -12 17 5 11 18 -7 18 -6 -1 16 -13 15 -15 21
-5 16 8 -4 5 2 -8 13 -13 11 -21 25 -17 30 9 16 -31 51 -44 38 -15 -15 -14 6
2 23 10 12 9 12 -6 0 -17 -12 -20 -12 -28 3 -6 9 -21 17 -34 17 -13 0 -29 8
-35 18 -9 15 -10 14 -5 -5 5 -19 3 -22 -12 -16 -10 3 -23 10 -30 15 -7 5 -13
4 -16 -4 -4 -10 -6 -10 -6 0 -1 6 -11 12 -23 13 -13 0 -18 3 -12 5 20 8 4 41
-35 76 -64 57 -65 57 -84 46z m-107 -303 c8 -9 10 -27 6 -46 -4 -20 -2 -28 5
-23 8 4 8 1 1 -13 -10 -18 -5 -21 55 -34 64 -15 65 -15 73 6 12 33 36 47 72
43 30 -3 33 -6 31 -35 -2 -24 2 -33 18 -38 19 -6 19 -8 5 -30 -14 -22 -14 -24
8 -38 16 -11 36 -14 66 -10 40 6 42 5 31 -15 -6 -11 -16 -22 -23 -24 -8 -3 1
-21 25 -48 76 -89 117 -206 117 -335 0 -188 -86 -351 -241 -454 -54 -36 -193
-91 -202 -80 -2 2 0 49 5 104 5 55 6 181 2 280 -4 99 -8 237 -9 307 -2 98 -6
131 -19 149 -21 30 -20 54 4 107 13 29 15 42 7 40 -6 -3 -21 -28 -32 -56 l-20
-53 -44 3 c-41 3 -44 5 -60 47 -9 24 -21 46 -28 48 -7 3 -5 -13 7 -44 19 -50
16 -66 -17 -105 -10 -11 -16 -47 -18 -110 -2 -51 -10 -145 -19 -208 -8 -63
-17 -185 -21 -270 -3 -85 -8 -170 -11 -188 l-5 -33 -69 36 c-44 24 -92 61
-134 105 -181 187 -204 464 -57 680 l42 61 -23 19 c-19 15 -21 21 -10 31 10
11 19 11 44 1 29 -11 35 -9 90 28 63 42 140 74 204 84 l40 7 -3 46 c-2 25 2
51 8 59 15 19 83 18 99 -1z m-45 -775 c12 -54 18 -123 19 -244 l1 -168 -64 6
c-35 3 -65 7 -67 9 -6 6 51 383 72 477 8 34 17 14 39 -80z"/>
<path d="M3899 4722 c-8 -12 -17 -22 -22 -22 -4 0 -5 5 -1 12 5 8 2 9 -9 5
-10 -4 -17 -1 -17 6 0 8 -3 8 -9 -2 -5 -7 -13 -11 -19 -8 -5 4 -17 -2 -27 -13
-10 -11 -24 -16 -33 -12 -14 5 -15 3 -4 -10 10 -12 10 -18 -2 -27 -8 -7 -23
-14 -33 -15 -10 -2 -17 -11 -17 -20 1 -9 -3 -13 -9 -9 -6 4 -8 0 -4 -10 4 -11
2 -14 -9 -10 -10 4 -12 0 -8 -10 3 -10 -2 -21 -15 -29 -12 -7 -21 -18 -21 -24
0 -7 -7 -15 -16 -18 -9 -3 -12 -11 -8 -18 5 -8 2 -9 -9 -5 -11 4 -17 1 -17 -7
0 -8 -7 -16 -15 -20 -8 -3 -15 -14 -15 -25 0 -11 -9 -25 -21 -31 -11 -7 -18
-14 -15 -17 2 -3 -4 -15 -15 -26 -11 -12 -17 -27 -14 -35 3 -8 0 -10 -6 -6 -8
4 -9 -1 -4 -15 3 -11 2 -21 -3 -21 -11 0 -25 -35 -25 -62 0 -10 -3 -15 -7 -13
-5 3 -11 -22 -15 -55 -4 -33 -10 -58 -14 -56 -4 3 -6 -10 -4 -27 5 -54 0 -233
-7 -247 -1 -3 -2 -9 -1 -13 1 -4 -6 -10 -14 -13 -8 -3 -12 -10 -9 -15 2 -5 1
-17 -4 -26 -6 -10 -12 -47 -16 -82 -3 -35 -7 -66 -9 -68 -3 -2 -1 -20 3 -39 5
-20 4 -34 -2 -34 -5 0 -6 -6 -1 -12 4 -7 6 -21 5 -31 -2 -10 2 -25 9 -34 7 -8
12 -28 11 -45 -2 -20 1 -27 9 -22 7 4 9 3 5 -4 -3 -6 -1 -29 6 -52 10 -30 17
-40 30 -37 12 4 15 0 11 -12 -4 -9 -3 -13 2 -9 4 4 20 -6 35 -22 17 -18 30
-25 32 -18 3 7 12 9 22 5 9 -4 15 -10 12 -15 -2 -4 11 -7 29 -7 19 1 32 -2 29
-7 -3 -5 7 -7 23 -6 16 1 35 -2 42 -7 8 -5 12 -4 8 1 -5 10 113 10 138 0 8 -3
17 -1 21 5 4 6 13 4 24 -6 10 -9 27 -18 37 -20 10 -2 18 -4 18 -5 0 -1 18 -4
40 -6 22 -2 41 -8 43 -14 2 -6 8 -7 13 -4 6 3 16 0 24 -6 11 -10 15 -10 15 -1
0 7 4 10 9 7 12 -8 190 -11 197 -3 4 4 12 3 18 0 15 -10 85 -10 79 0 -2 4 5 7
16 7 12 0 21 -6 22 -12 0 -7 4 -4 9 7 6 13 9 15 9 5 1 -11 3 -12 9 -3 4 7 28
15 52 18 24 3 59 14 78 25 18 11 31 16 27 11 -3 -5 8 -3 25 5 16 9 32 20 35
25 4 5 11 6 17 3 6 -4 8 -2 5 3 -4 6 12 21 36 33 40 21 79 54 73 61 -2 2 10
15 27 29 17 14 27 18 22 10 -8 -13 -6 -13 8 -1 9 7 14 17 11 22 -3 5 0 9 5 9
6 0 10 3 10 8 -1 4 -1 14 0 22 1 12 3 13 10 1 7 -11 11 -8 17 10 4 13 8 26 9
29 0 3 4 11 8 18 5 6 5 12 0 13 -4 0 1 4 12 8 11 5 20 12 20 17 0 5 4 15 8 22
5 7 4 12 -3 12 -6 0 -8 5 -5 10 4 6 11 8 16 5 5 -4 8 5 7 19 -1 13 3 35 10 48
31 62 35 90 38 276 1 108 -2 195 -7 198 -5 3 -7 9 -4 14 3 4 -2 26 -9 48 -8
22 -12 43 -9 46 4 3 1 6 -6 6 -7 0 -10 4 -6 9 3 5 -2 17 -11 25 -8 9 -12 16
-9 16 4 0 0 12 -10 26 -9 15 -12 23 -6 20 6 -4 11 -2 11 3 0 6 -4 11 -10 11
-5 0 -10 7 -10 15 0 9 -7 18 -16 22 -8 3 -13 11 -10 18 3 8 -2 16 -10 19 -8 3
-19 17 -24 31 -5 14 -16 25 -25 25 -8 0 -15 3 -15 8 -1 15 -68 81 -75 74 -5
-4 -5 1 -2 11 5 14 2 18 -11 16 -23 -3 -53 11 -47 22 3 4 -8 15 -25 24 -16 8
-30 13 -30 9 0 -3 -10 0 -22 8 -13 8 -36 18 -51 22 -15 3 -26 10 -23 14 3 5
-11 7 -30 6 -19 -2 -34 1 -34 7 0 6 -6 9 -14 6 -7 -3 -18 -1 -24 5 -6 6 -38
12 -71 12 -33 1 -63 5 -67 9 -4 4 -14 1 -22 -6 -11 -9 -16 -9 -19 0 -3 7 -13
9 -31 4 -30 -9 -99 -7 -108 2 -3 3 -17 2 -31 -4 -30 -11 -36 -11 -29 -1 3 5
-1 9 -9 9 -8 0 -15 -3 -15 -7 0 -10 -32 -5 -60 10 -23 12 -24 12 -11 -4 12
-15 12 -17 0 -14 -8 2 -19 9 -25 17 -10 13 -14 11 -25 -7z m473 -282 c212 -65
378 -289 378 -509 0 -246 -175 -472 -413 -532 -26 -6 -51 -9 -54 -5 -3 3 -1
24 6 47 13 44 10 55 -14 46 -10 -4 -15 -19 -15 -45 0 -59 -15 -66 -108 -53
-88 11 -132 25 -132 41 0 6 7 24 15 40 15 28 14 30 -4 30 -15 0 -22 -9 -27
-35 -3 -19 -10 -35 -14 -35 -5 0 -39 20 -76 45 -62 42 -68 44 -80 28 -7 -10
-14 -20 -14 -23 0 -14 -61 -40 -92 -40 -45 0 -78 19 -105 59 -52 77 -15 153
94 196 2 1 -7 26 -18 56 -27 68 -36 197 -20 281 17 90 70 194 96 190 15 -2 17
-1 6 6 -31 22 92 136 199 186 30 14 60 26 65 26 6 0 23 -13 38 -30 16 -16 33
-30 38 -30 17 0 9 -21 -15 -43 -14 -12 -34 -53 -46 -92 -23 -72 -44 -105 -66
-105 -6 0 -36 18 -65 40 -30 22 -57 40 -61 40 -5 0 -8 8 -9 18 0 11 -2 12 -6
4 -4 -10 -10 -9 -27 5 -11 9 -15 11 -8 3 16 -19 15 -30 -4 -30 -14 0 -14 -2 1
-16 13 -13 13 -19 3 -32 -11 -13 -10 -14 9 -4 34 18 47 15 99 -27 75 -59 92
-66 113 -47 10 9 33 52 52 96 19 44 40 82 48 85 8 3 40 8 72 12 66 7 89 -5 89
-43 0 -14 9 -28 22 -35 28 -15 130 -18 135 -4 2 6 -13 37 -32 69 -19 32 -35
60 -35 61 0 2 10 1 23 -2 21 -4 22 -4 3 11 -11 9 -24 16 -30 16 -5 0 -18 8
-28 17 -10 9 -27 17 -38 18 -11 1 -26 10 -34 20 -18 25 -49 13 -44 -17 2 -18
9 -22 29 -20 15 1 32 -4 39 -13 7 -8 20 -15 30 -15 11 0 25 -17 39 -49 11 -27
21 -52 21 -55 0 -18 -34 1 -99 54 -52 42 -82 60 -102 60 -16 0 -29 5 -29 10 0
6 6 10 13 10 17 0 57 45 57 64 0 22 52 21 132 -4z"/>
<path d="M4650 2769 c0 -6 -6 -9 -14 -6 -8 3 -17 3 -21 -1 -3 -3 -18 -7 -33
-8 -15 0 -36 -5 -46 -9 -15 -6 -17 -5 -11 5 5 7 4 11 -1 9 -5 -3 -22 -11 -39
-18 -16 -7 -38 -17 -47 -22 -10 -5 -24 -6 -33 -3 -11 5 -15 -1 -15 -20 0 -34
-14 -33 -60 4 -39 31 -80 50 -108 50 -13 0 -13 -2 4 -15 10 -8 14 -15 7 -15
-6 0 -19 10 -27 21 -10 16 -20 19 -33 14 -10 -4 -23 -9 -30 -11 -6 -1 -39 -16
-73 -33 -65 -33 -86 -40 -54 -17 10 8 16 18 11 22 -4 4 -7 2 -7 -4 0 -7 -9
-12 -20 -12 -12 0 -25 -10 -32 -25 -6 -14 -17 -24 -24 -21 -9 3 -11 -1 -7 -12
5 -14 3 -15 -8 -4 -7 6 -18 12 -23 12 -6 0 -4 -5 4 -10 12 -8 10 -10 -8 -10
-13 0 -20 -4 -17 -10 3 -6 -4 -9 -17 -8 -23 2 -74 -22 -110 -52 -10 -8 -23
-16 -28 -16 -6 -1 -14 -2 -20 -3 -5 0 -6 -8 -3 -18 4 -9 2 -14 -4 -10 -11 7
-73 -28 -73 -42 0 -6 -12 -23 -27 -38 -14 -15 -23 -22 -19 -16 5 9 2 11 -8 7
-8 -3 -12 -12 -9 -20 3 -8 -4 -23 -16 -33 -11 -10 -18 -21 -14 -25 3 -3 1 -6
-5 -6 -7 0 -12 -6 -12 -14 0 -7 -7 -19 -15 -26 -8 -7 -12 -16 -9 -21 3 -5 1
-9 -5 -9 -6 0 -8 -6 -5 -14 3 -8 -4 -24 -16 -36 -14 -14 -19 -28 -15 -41 4
-10 2 -19 -4 -19 -5 0 -8 -11 -5 -25 2 -13 -2 -30 -9 -36 -7 -7 -11 -25 -9
-40 2 -14 0 -29 -5 -32 -6 -4 -6 -29 -3 -59 4 -29 5 -57 2 -62 -2 -4 -4 -30
-3 -58 0 -30 -3 -47 -9 -43 -6 3 -10 0 -10 -9 0 -8 6 -17 13 -19 8 -4 9 -6 0
-6 -7 -1 -10 -11 -7 -27 3 -15 1 -23 -5 -20 -6 4 -12 -8 -15 -26 -7 -46 -4
-68 8 -68 6 0 5 -4 -3 -9 -16 -10 -7 -81 10 -81 6 0 7 5 3 12 -4 7 -3 8 5 4 9
-6 9 -11 0 -22 -8 -10 -8 -14 -1 -14 7 0 9 -7 5 -17 -5 -12 -2 -15 10 -10 9 3
29 0 44 -8 15 -8 21 -15 13 -15 -9 0 -21 5 -27 11 -8 8 -13 7 -18 -2 -5 -7 0
-17 11 -25 10 -7 24 -17 29 -22 6 -5 16 -7 23 -4 6 2 12 -1 12 -6 0 -6 10 -14
21 -17 12 -4 18 -10 13 -14 -12 -8 -17 -34 -5 -27 5 4 23 -7 39 -23 16 -17 32
-27 36 -24 3 4 6 -6 6 -21 0 -15 4 -25 9 -21 6 3 24 -8 41 -25 17 -17 35 -28
39 -25 5 2 11 -4 14 -15 3 -13 10 -18 21 -14 9 3 16 1 16 -6 0 -6 5 -8 10 -5
6 3 10 -1 10 -9 0 -10 9 -16 24 -16 14 0 28 -5 32 -12 5 -7 3 -8 -6 -3 -9 5
-11 4 -6 -3 5 -9 13 -9 27 -2 10 6 19 7 19 3 0 -9 54 -33 85 -38 98 -16 150
-19 279 -20 96 0 151 4 153 11 2 5 17 9 33 8 17 -1 30 2 30 8 0 5 5 6 11 2 6
-3 15 0 20 7 7 11 9 11 9 1 0 -7 5 -10 10 -7 6 4 8 10 5 14 -2 5 6 9 19 9 35
0 97 22 91 33 -4 5 0 6 8 4 7 -3 24 3 37 15 13 11 27 20 32 20 5 0 7 4 4 8 -2
4 10 14 27 22 38 16 122 102 139 141 7 15 16 25 20 23 4 -3 9 0 9 5 2 14 4 21
12 44 4 9 9 24 12 33 3 8 8 13 13 10 4 -2 9 5 9 17 1 11 9 25 18 30 12 6 13
12 5 22 -8 9 -8 15 0 20 6 3 8 11 5 16 -4 5 -1 9 6 9 7 0 9 3 6 7 -4 3 -1 13
6 21 10 13 9 14 -2 7 -11 -6 -12 -5 -5 6 5 8 9 17 10 22 1 4 3 8 4 10 3 3 9
111 10 202 1 76 -6 165 -15 194 -3 11 2 26 12 37 17 17 17 17 1 11 -10 -3 -18
-2 -18 3 0 6 6 10 13 10 8 0 7 4 -3 10 -11 7 -11 10 -2 10 7 0 11 4 7 9 -3 5
2 17 11 25 9 9 13 23 10 31 -3 8 0 17 5 21 6 3 9 17 6 30 -2 13 1 32 8 41 8
11 10 25 5 38 -4 12 -6 49 -4 83 2 34 1 62 -4 62 -4 0 -6 15 -4 34 2 18 -1 37
-7 40 -6 4 -11 16 -11 27 0 11 -4 17 -10 14 -5 -3 -7 0 -4 8 7 18 -24 49 -39
40 -7 -4 -6 1 2 10 7 9 12 17 10 18 -2 0 -14 2 -25 3 -12 1 -29 10 -39 19 -9
9 -23 18 -31 18 -23 2 -28 4 -41 12 -7 5 -13 5 -13 1 0 -3 -6 -2 -12 4 -7 5
-31 10 -53 11 -50 1 -72 5 -81 14 -11 11 -24 8 -24 -4z m-645 -224 c7 -82 8
-85 32 -85 24 0 25 3 20 40 -3 23 -1 38 4 34 5 -3 9 -16 9 -29 0 -36 10 -55
30 -55 10 0 21 -8 25 -19 5 -15 16 -18 78 -18 78 0 178 -19 189 -37 5 -7 8 -5
8 6 0 9 -6 19 -12 21 -7 3 4 6 25 6 27 1 37 -3 37 -14 0 -8 7 -15 15 -15 8 0
15 -5 15 -11 0 -5 -4 -7 -10 -4 -5 3 -8 0 -5 -7 3 -7 25 -26 50 -41 111 -70
205 -220 227 -361 14 -92 1 -207 -33 -285 l-21 -50 36 -32 36 -31 -25 -45
c-22 -41 -24 -52 -18 -116 5 -57 4 -69 -8 -65 -8 3 -16 23 -19 49 l-5 44 -20
-32 c-10 -18 -25 -33 -32 -33 -18 0 -17 65 2 80 8 7 15 21 15 31 0 27 -60 26
-85 -1 -10 -11 -38 -33 -62 -48 -34 -21 -43 -33 -43 -54 0 -17 -5 -28 -14 -28
-10 0 -12 7 -8 22 4 18 2 20 -14 14 -74 -29 -213 -56 -289 -56 -77 0 -85 2
-85 19 0 22 -42 41 -48 22 -2 -6 -12 -11 -23 -11 -13 0 -19 7 -19 23 0 16 -11
28 -37 42 -20 11 -62 46 -94 77 -32 31 -60 54 -62 50 -3 -4 -15 -49 -28 -101
-21 -83 -39 -114 -55 -98 -3 2 10 59 29 124 l35 120 -28 58 c-40 82 -54 160
-48 263 9 141 63 259 164 357 43 42 43 43 46 121 3 73 5 79 26 82 19 3 22 9
22 49 0 54 7 53 16 -3 3 -21 7 -40 7 -40 1 -1 13 -5 26 -9 l24 -7 -7 68 c-4
38 -10 77 -12 87 -3 9 -1 17 4 17 6 0 13 -38 17 -85z m756 -64 c33 -32 39 -45
39 -80 0 -81 -49 -131 -127 -131 -72 1 -123 53 -123 125 1 75 52 125 129 125
37 0 49 -6 82 -39z"/>
<path d="M673 2659 c-18 -3 -33 -4 -33 -2 0 3 -6 1 -12 -4 -7 -6 -21 -9 -30
-8 -10 2 -18 -1 -18 -6 0 -6 -4 -8 -9 -4 -5 3 -12 1 -16 -5 -3 -5 -22 -10 -41
-10 -21 0 -37 -6 -40 -14 -3 -8 -11 -13 -18 -10 -7 3 -19 -2 -26 -11 -7 -8
-21 -15 -31 -15 -11 0 -19 -4 -19 -10 0 -5 -9 -10 -21 -10 -12 0 -17 -4 -14
-11 4 -6 0 -9 -11 -7 -11 2 -18 -2 -17 -9 2 -7 -1 -13 -6 -13 -5 0 -11 6 -14
13 -3 9 -8 9 -18 -2 -12 -12 -12 -13 1 -6 9 5 12 4 7 -1 -9 -9 -13 -10 -60
-12 -16 -1 -25 -6 -22 -12 8 -14 -8 -13 -22 1 -9 9 -10 6 -6 -11 5 -19 3 -22
-11 -17 -12 5 -16 3 -14 -5 3 -7 -1 -24 -8 -37 -7 -14 -11 -28 -8 -33 3 -4 0
-8 -6 -8 -6 0 -10 -8 -7 -17 2 -10 -2 -30 -10 -45 -7 -15 -10 -35 -6 -44 3
-10 2 -15 -3 -12 -5 4 -10 -10 -10 -30 -2 -42 -13 -110 -22 -132 -7 -20 -12
-45 -17 -100 -2 -25 -5 -47 -6 -50 -5 -13 -3 -168 3 -164 3 2 5 -16 3 -41 -3
-31 0 -43 7 -39 7 5 9 -2 4 -19 -3 -14 -1 -29 4 -32 6 -4 8 -16 4 -27 -5 -16
-3 -19 7 -12 12 6 12 5 0 -9 -11 -14 -11 -17 0 -17 11 0 11 -2 -1 -10 -14 -9
-13 -11 9 -14 5 0 13 -5 18 -10 5 -5 3 -6 -4 -2 -7 4 -13 4 -13 1 0 -10 34
-70 42 -73 4 -2 5 -9 2 -15 -2 -7 4 -22 14 -33 10 -11 22 -31 25 -45 4 -14 17
-30 30 -36 16 -8 23 -19 22 -35 -1 -12 4 -32 12 -44 7 -11 10 -24 6 -29 -5 -4
-1 -6 9 -2 9 3 24 -1 35 -9 17 -14 17 -15 -3 -5 -21 10 -34 6 -34 -10 0 -5 7
-6 15 -3 12 5 13 2 8 -12 -7 -18 -6 -18 22 0 24 16 27 16 16 3 -7 -9 -10 -17
-6 -17 4 0 2 -6 -4 -13 -8 -11 -6 -18 10 -33 21 -19 21 -19 18 1 -4 20 1 25
23 25 9 0 9 -3 0 -12 -7 -7 -12 -19 -12 -28 1 -12 4 -11 15 4 9 12 15 15 15 7
0 -7 6 -11 14 -8 10 4 13 1 9 -9 -4 -11 -8 -12 -19 -3 -12 10 -13 9 -8 -5 7
-18 13 -20 34 -6 9 5 19 5 27 -2 7 -6 13 -7 13 -3 0 5 9 0 20 -10 13 -12 20
-14 20 -5 0 7 7 10 15 6 8 -3 15 -2 15 3 0 8 35 6 135 -6 33 -4 101 -8 150 -8
50 0 93 -4 97 -10 5 -7 8 -7 8 0 0 6 12 10 28 11 15 1 43 4 62 8 19 4 53 8 75
9 22 2 54 10 70 18 33 16 60 14 49 -3 -5 -7 -2 -8 5 -4 7 5 10 10 7 14 -8 8
26 31 47 32 9 0 17 4 17 10 0 5 3 9 8 8 16 -3 42 15 42 30 0 8 3 12 7 9 3 -4
15 1 26 10 12 11 17 12 12 4 -5 -10 -4 -12 3 -7 7 4 12 14 12 22 0 8 5 12 10
9 6 -3 10 -2 10 2 0 9 59 37 73 34 4 0 7 4 7 9 0 6 5 10 11 10 6 0 7 -6 2 -12
-4 -7 5 -5 19 4 20 13 28 14 31 5 4 -9 6 -9 6 1 1 7 6 10 11 7 6 -3 10 -1 10
6 0 8 4 8 13 1 15 -13 31 -4 40 21 4 10 11 16 16 13 10 -7 43 39 40 57 -1 6 1
20 6 30 4 9 5 28 3 42 -3 13 -2 22 3 20 4 -3 10 -1 14 5 3 5 0 10 -7 10 -9 0
-9 3 2 10 8 5 10 10 4 10 -8 0 -9 13 -4 40 4 22 4 37 -1 34 -4 -2 -6 10 -4 27
2 18 -1 41 -7 52 -7 14 -7 17 1 13 7 -5 9 -1 5 8 -3 9 -10 16 -14 16 -5 0 -7
11 -6 24 2 14 -3 27 -11 30 -11 5 -11 10 -2 27 9 17 8 20 -2 14 -9 -6 -11 -3
-6 8 3 10 2 17 -3 17 -5 0 -9 10 -9 23 2 32 -10 158 -17 181 -4 12 -2 16 5 12
6 -4 5 6 -3 26 -7 18 -11 39 -9 46 3 6 1 12 -4 12 -5 0 -10 11 -11 24 -3 36
-21 78 -31 72 -5 -3 -8 2 -7 12 0 9 -5 16 -11 15 -15 -3 -17 13 -3 22 6 4 8
11 4 16 -3 5 -10 6 -16 3 -7 -5 -9 -1 -5 9 4 11 1 17 -9 17 -8 0 -12 5 -9 10
3 6 -1 13 -9 16 -9 3 -16 12 -16 19 0 6 -9 20 -20 30 -11 10 -17 22 -13 28 3
6 1 7 -6 3 -6 -4 -14 -1 -17 8 -3 8 -14 18 -25 21 -11 4 -17 11 -14 16 4 5 -1
9 -10 9 -9 0 -14 3 -12 8 2 4 -10 18 -27 32 -23 19 -27 20 -16 5 14 -19 14
-19 -4 -5 -10 8 -22 23 -26 35 -9 20 -9 20 -10 0 0 -15 -3 -16 -9 -7 -4 7 -16
14 -25 16 -10 1 -22 9 -27 17 -5 8 -9 10 -9 5 0 -5 -7 -3 -15 4 -8 6 -19 9
-24 6 -5 -4 -12 -2 -16 4 -3 5 -20 10 -36 10 -17 0 -28 4 -25 9 4 5 -2 8 -11
6 -10 -1 -22 0 -27 3 -23 13 -331 22 -383 11z m252 -196 c0 -16 -4 -33 -8 -40
-5 -8 10 -15 48 -23 89 -19 173 -67 251 -144 249 -248 209 -635 -87 -837 -75
-50 -79 -64 -26 -82 54 -18 57 -45 7 -62 -86 -30 -303 -26 -374 6 -31 14 -34
39 -6 46 11 3 20 9 20 14 0 5 -7 5 -17 2 -11 -4 -14 -3 -9 5 5 8 1 11 -11 10
-36 -3 -64 2 -59 11 4 5 -4 7 -16 3 -16 -4 -19 -2 -13 8 5 9 4 11 -3 6 -15 -9
-110 52 -160 102 -166 166 -209 420 -106 624 l24 48 -20 20 c-55 55 7 137 77
103 30 -14 32 -13 78 21 58 45 91 63 80 46 -5 -8 -3 -11 6 -8 8 2 16 18 17 34
5 38 15 49 49 52 19 1 24 -1 15 -7 -10 -6 -8 -10 8 -14 27 -7 90 3 90 14 0 5
5 9 11 9 7 0 18 8 26 18 13 16 14 15 8 -5 -5 -19 -2 -23 14 -23 31 0 36 3 35
23 0 9 5 17 11 17 7 0 18 7 25 15 16 19 15 20 15 -12z"/>
<path d="M2153 1698 c-18 -6 -33 -16 -33 -22 0 -6 -4 -5 -9 2 -7 11 -11 11
-24 -2 -17 -18 -32 -21 -22 -6 3 6 -1 7 -9 4 -9 -3 -16 -12 -16 -19 0 -7 -7
-12 -16 -11 -10 0 -26 -16 -40 -42 -18 -34 -20 -43 -8 -38 10 4 14 1 11 -6 -2
-7 -10 -12 -16 -10 -7 1 -10 -1 -7 -6 8 -13 -16 -82 -25 -76 -5 3 -6 -2 -3
-11 4 -9 -2 -25 -11 -35 -10 -11 -15 -20 -11 -20 4 0 -5 -12 -19 -26 -14 -14
-23 -30 -20 -35 4 -5 -1 -9 -9 -9 -14 0 -18 -6 -15 -26 0 -3 -11 -21 -26 -40
-14 -19 -23 -34 -20 -34 3 0 -1 -13 -10 -30 -8 -16 -15 -31 -15 -32 1 -2 -1
-10 -3 -18 -27 -86 -40 -184 -39 -300 0 -92 -10 -128 -33 -126 -5 1 -11 -10
-13 -24 -2 -14 -9 -29 -15 -35 -7 -5 -13 -23 -13 -40 -1 -16 -5 -46 -9 -65 -9
-46 -9 -59 -3 -97 5 -26 3 -31 -10 -26 -13 4 -13 2 2 -9 10 -8 16 -20 12 -26
-3 -6 -3 -13 2 -16 5 -3 7 -18 6 -35 -1 -17 6 -38 16 -49 11 -11 17 -22 14
-25 -3 -2 12 -21 32 -42 28 -29 38 -35 45 -24 7 11 9 11 9 -2 0 -11 10 -16 31
-17 17 0 36 -5 42 -10 7 -6 32 -8 56 -5 25 3 41 1 38 -4 -3 -5 14 -9 38 -9 24
1 41 5 38 10 -3 4 5 5 18 1 13 -4 26 -12 27 -16 2 -5 16 -9 32 -9 15 0 30 -7
34 -15 3 -8 12 -12 19 -9 8 3 22 -2 31 -11 9 -9 21 -13 27 -9 8 4 9 3 5 -4 -5
-8 1 -11 16 -11 13 1 54 -6 93 -15 38 -9 87 -16 110 -16 22 1 83 1 135 0 101
-1 168 9 241 34 24 9 52 16 61 16 9 0 18 5 20 10 2 6 14 12 28 14 37 4 60 16
60 32 0 8 3 13 8 13 17 -3 30 2 52 21 13 11 29 20 37 20 8 0 11 5 8 10 -3 6
-2 10 4 10 5 0 13 9 16 21 4 11 9 18 13 15 10 -10 42 26 43 48 0 21 1 21 9 1
8 -18 9 -17 9 7 1 15 8 33 16 41 8 8 11 17 8 21 -6 6 12 10 30 7 5 -1 6 2 3 7
-7 12 15 84 32 101 7 7 11 20 8 27 -3 8 -2 14 3 14 5 0 9 6 8 13 -1 39 4 49
21 42 14 -5 15 -4 5 6 -14 14 -18 49 -5 49 4 0 6 19 4 41 -3 30 -1 40 7 35 6
-4 10 -4 9 1 -1 4 2 19 6 32 6 16 4 26 -5 32 -11 7 -11 9 -1 9 7 0 11 4 7 10
-3 5 2 17 10 28 11 13 18 47 21 112 3 52 7 97 10 101 2 4 0 10 -6 14 -6 4 -7
12 -1 22 9 17 3 55 -8 49 -3 -2 -7 14 -7 37 -1 23 -6 43 -12 45 -6 2 -8 10 -5
19 4 10 2 14 -4 10 -6 -4 -16 0 -23 8 -10 12 -10 15 0 15 10 0 10 3 0 15 -7 8
-16 12 -21 9 -5 -3 -9 0 -9 5 0 6 -6 11 -14 11 -7 0 -19 6 -26 14 -6 8 -21 16
-33 18 -13 2 -21 9 -19 17 3 12 0 12 -13 1 -13 -11 -15 -10 -9 4 5 12 0 16
-17 17 -13 0 -19 3 -12 6 10 3 10 7 0 18 -7 7 -15 11 -19 9 -4 -2 -9 5 -13 16
-4 11 -11 18 -16 15 -5 -4 -9 1 -9 10 0 9 -4 13 -10 10 -5 -3 -10 -1 -10 4 0
6 -6 11 -14 11 -8 0 -21 8 -28 18 -7 9 -31 26 -53 37 -22 11 -46 25 -52 32 -7
6 -21 9 -31 6 -11 -2 -26 3 -36 12 -9 9 -16 14 -16 11 0 -3 -23 2 -51 10 -29
9 -72 17 -98 19 -25 2 -48 5 -51 6 -3 1 -9 0 -15 -1 -26 -6 -110 1 -113 9 -2
5 -16 7 -31 5 -17 -3 -33 1 -41 10 -9 11 -17 13 -30 6 -20 -10 -46 10 -32 25
4 5 1 5 -6 1 -7 -4 -10 -11 -7 -16 9 -14 -30 -6 -43 10 -12 13 -13 13 -6 0 6
-12 5 -13 -7 -4 -8 6 -37 10 -66 9 -29 -1 -50 2 -47 6 3 5 4 9 2 8 -2 -1 -18
-6 -35 -11z m247 -252 l43 -53 101 -6 c187 -10 339 -91 427 -226 30 -47 32
-49 69 -44 34 5 43 1 70 -25 16 -17 30 -37 30 -46 0 -31 -21 -67 -49 -83 -28
-16 -29 -19 -23 -75 7 -78 -14 -78 -68 2 -36 52 -43 59 -60 50 -18 -9 -25 -1
-70 90 -67 134 -68 134 -215 36 -64 -42 -121 -79 -128 -81 -20 -7 -40 16 -101
119 -52 88 -57 101 -43 111 19 14 12 25 -16 25 -10 0 -21 9 -24 20 -6 24 -22
25 -49 5 -27 -21 -39 -18 -52 9 -10 23 -8 27 21 44 18 11 53 27 80 37 43 16
46 19 33 34 -33 37 -51 111 -27 111 5 0 27 -24 51 -54z m-153 -220 c23 -35 28
-38 62 -33 l36 4 64 -95 c48 -72 60 -97 50 -103 -8 -4 -31 -21 -53 -38 -21
-17 -42 -31 -46 -31 -12 0 -140 200 -140 219 0 9 -8 21 -19 28 -23 14 -34 68
-20 94 13 25 29 14 66 -45z m-102 -90 c-2 -23 -4 -51 -4 -63 -1 -15 -21 -37
-66 -69 -36 -25 -68 -44 -71 -42 -9 10 44 140 77 188 27 40 35 46 50 37 12 -8
16 -21 14 -51z m91 -127 c-34 -83 -32 -93 30 -184 l57 -84 -36 -40 c-40 -45
-52 -78 -43 -117 5 -17 3 -23 -4 -19 -16 10 -12 -70 6 -113 8 -20 29 -52 47
-71 l32 -34 -55 29 c-163 86 -280 284 -280 475 0 63 2 69 33 96 62 54 103 75
139 68 24 -4 40 0 58 14 14 11 26 18 27 17 2 -2 -3 -18 -11 -37z m667 -330
c18 -44 64 -67 97 -49 12 6 23 10 26 8 2 -2 -13 -33 -34 -67 -68 -116 -195
-211 -328 -245 -57 -15 -158 -22 -124 -9 23 9 82 54 112 85 15 15 34 28 43 28
19 0 91 48 119 79 11 11 25 21 31 21 7 0 24 9 39 21 32 25 35 75 7 106 -11 11
-24 36 -29 54 -5 19 -13 43 -17 54 -12 32 42 -48 58 -86z m-883 -139 c31 -31
27 -93 -6 -119 -37 -29 -70 -26 -105 8 -36 36 -37 73 -4 106 31 32 86 34 115
5z"/>
</g>
</svg>
