<svg width="23" height="22" viewBox="0 0 23 22" fill="none" xmlns="http://www.w3.org/2000/svg">
<path d="M7.90625 15.8125C7.71563 15.8125 7.53281 15.7401 7.39802 15.6111C7.26323 15.4822 7.1875 15.3073 7.1875 15.125V6.875C7.18757 6.75786 7.21892 6.64267 7.2786 6.54037C7.33827 6.43808 7.42428 6.35206 7.52847 6.29049C7.63266 6.22892 7.75157 6.19383 7.87391 6.18856C7.99626 6.18329 8.11798 6.20801 8.22753 6.26037L16.8525 10.3854C16.9718 10.4425 17.072 10.5303 17.1421 10.6388C17.2121 10.7474 17.2492 10.8724 17.2492 11C17.2492 11.1276 17.2121 11.2526 17.1421 11.3612C17.072 11.4697 16.9718 11.5575 16.8525 11.6146L8.22753 15.7396C8.12779 15.7874 8.0178 15.8124 7.90625 15.8125ZM8.625 7.98737V14.0126L14.9241 11L8.625 7.98737Z" fill="#0083EB"/>
<path d="M11.5 2.75C13.2059 2.75 14.8734 3.23385 16.2918 4.14038C17.7102 5.0469 18.8157 6.33537 19.4685 7.84286C20.1213 9.35035 20.2921 11.0092 19.9593 12.6095C19.6265 14.2098 18.805 15.6798 17.5988 16.8336C16.3926 17.9874 14.8557 18.7731 13.1827 19.0915C11.5096 19.4098 9.77537 19.2464 8.19936 18.622C6.62335 17.9976 5.27631 16.9402 4.32858 15.5835C3.38085 14.2267 2.875 12.6317 2.875 11C2.875 8.81196 3.78371 6.71354 5.40121 5.16637C7.01871 3.61919 9.21251 2.75 11.5 2.75ZM11.5 1.375C9.50983 1.375 7.56435 1.9395 5.90958 2.9971C4.25481 4.05471 2.96507 5.55793 2.20347 7.31667C1.44186 9.07541 1.24259 11.0107 1.63085 12.8777C2.01912 14.7448 2.97748 16.4598 4.38474 17.8059C5.79201 19.152 7.58497 20.0687 9.53691 20.4401C11.4888 20.8114 13.5121 20.6208 15.3508 19.8923C17.1894 19.1638 18.761 17.9302 19.8667 16.3474C20.9723 14.7645 21.5625 12.9036 21.5625 11C21.5625 8.44729 20.5023 5.99913 18.6153 4.1941C16.7282 2.38906 14.1687 1.375 11.5 1.375Z" fill="#0083EB"/>
</svg>
