<svg width="21" height="21" viewBox="0 0 21 21" fill="none" xmlns="http://www.w3.org/2000/svg">
<path fill-rule="evenodd" clip-rule="evenodd" d="M10.5 0C4.70138 0 0 4.70138 0 10.5C0 16.2986 4.70138 21 10.5 21C16.2986 21 21 16.2986 21 10.5C21 4.70138 16.2986 0 10.5 0ZM1.75 10.5C1.75 5.66738 5.66738 1.75 10.5 1.75C15.3326 1.75 19.25 5.66738 19.25 10.5C19.25 15.3326 15.3326 19.25 10.5 19.25C5.66738 19.25 1.75 15.3326 1.75 10.5ZM10.5 4.88775L11.1186 5.50638L15.4936 9.88138L14.2564 11.1186L11.375 8.23725V15.75H9.625V8.23725L6.74362 11.1186L5.50638 9.88138L9.88138 5.50638L10.5 4.88775Z" fill="#6BAE42"/>
</svg>
