<svg width="25" height="25" viewBox="0 0 25 25" fill="none" xmlns="http://www.w3.org/2000/svg">
<path d="M13.3135 2.47397C12.9167 1.97918 12.0833 1.97918 11.6865 2.47397L3.35313 12.8906C3.23088 13.044 3.15435 13.2287 3.13233 13.4236C3.11031 13.6184 3.14369 13.8156 3.22864 13.9923C3.31359 14.1691 3.44667 14.3183 3.61259 14.4228C3.77852 14.5274 3.97056 14.583 4.16667 14.5833H8.33333V21.875C8.33333 22.1513 8.44308 22.4162 8.63843 22.6116C8.83378 22.8069 9.09873 22.9167 9.375 22.9167H15.625C15.9013 22.9167 16.1662 22.8069 16.3616 22.6116C16.5569 22.4162 16.6667 22.1513 16.6667 21.875V14.5833H20.8333C21.0294 14.583 21.2215 14.5274 21.3874 14.4228C21.5533 14.3183 21.6864 14.1691 21.7714 13.9923C21.8563 13.8156 21.8897 13.6184 21.8677 13.4236C21.8457 13.2287 21.7691 13.044 21.6469 12.8906L13.3135 2.47397ZM15.625 12.5H14.5833V20.8333H10.4167V12.5H6.33438L12.5 4.79272L18.6656 12.5H15.625Z" fill="white"/>
</svg>
